<svg width="35" height="35" viewBox="0 0 35 35" fill="none" xmlns="http://www.w3.org/2000/svg">
<path d="M11.7902 1.49939C-2.59314 6.65039 -3.79647 26.2231 9.78082 32.9154C14.4239 35.2047 20.2646 35.2047 24.9077 32.9154C31.0379 29.8837 34.2449 24.6761 34.2449 17.6381C34.2449 12.7761 33.0416 9.51205 30.0049 6.02139C25.884 1.38605 17.8012 -0.676614 11.7902 1.49939ZM21.5872 7.96505C22.4443 8.65072 23.0743 9.68205 23.0743 10.4811C23.0743 11.4557 23.4206 11.9091 24.3344 12.0281C25.481 12.1981 25.708 12.7704 26.6276 17.9214C27.1441 21.0664 27.6039 24.6137 27.6039 25.7584L27.6606 27.9344H21.9277C18.7775 27.9344 15.0539 27.6511 13.6803 27.2487C11.6766 26.7331 10.7571 26.7331 9.61054 27.2487C7.4309 28.2801 7.26062 27.0787 8.52072 19.1227C9.49701 12.7704 9.72406 12.1981 10.9274 12.0281C11.7845 11.9147 12.1875 11.4557 12.1875 10.5377C12.1875 9.04739 14.0776 7.10372 15.1675 7.44939C15.6272 7.61939 15.4513 7.96505 14.5942 8.42405C12.9311 9.27972 12.8175 11.9147 14.4807 11.9147C15.281 11.9147 15.6272 11.5124 15.6272 10.6001C15.6272 8.53739 17.2336 6.99605 19.4075 6.82605C19.7538 6.76372 20.7244 7.27939 21.5872 7.96505Z" fill="#FB774B"/>
<path d="M17.4606 8.0274C16.4276 9.34206 16.4276 11.0024 17.5174 11.2291C18.261 11.3991 18.4937 11.0591 18.4937 9.97106C18.4937 9.17206 18.7775 8.48073 19.067 8.48073C19.4132 8.48073 19.6403 9.10973 19.6403 9.90873C19.6403 10.9401 19.9241 11.3367 20.7868 11.3367C21.6496 11.3367 21.9334 10.9344 21.9334 9.90873C21.9277 7.80073 18.7775 6.48606 17.4606 8.0274Z" fill="#FB774B"/>
<path d="M9.90002 16.6124C9.55378 18.9017 9.04292 21.8767 8.8102 23.1914C8.29368 25.6507 8.46396 25.9397 10.1271 25.3107C10.8706 25.0274 11.0409 24.0527 11.0409 20.5054C11.0409 17.9894 11.3247 15.8134 11.6142 15.6434C11.9605 15.4167 12.1875 17.0714 12.1875 20.1087C12.1875 24.6307 12.301 24.9707 13.4476 25.2597C14.1344 25.4864 14.8212 25.543 14.9347 25.4297C15.0483 25.2597 14.7077 22.3414 14.1344 18.8507C13.1581 12.9574 12.9878 12.4984 11.8413 12.4984C10.6947 12.4984 10.5301 12.9517 9.90002 16.6124Z" fill="#FB774B"/>
<path d="M15.281 19.3607L16.4276 26.2287H21.5247H26.6787L26.2756 22.908C26.0486 21.1344 25.5888 18.046 25.2426 16.04L24.6125 12.4927H19.3394H14.1287L15.281 19.3607ZM20.9004 19.185C21.5304 19.7574 21.9334 19.814 22.2172 19.4117C22.677 18.6694 24.2209 18.556 24.2209 19.2984C24.2209 20.2164 20.8436 20.6697 19.9241 19.9274C19.2373 19.355 18.891 19.355 18.2042 19.9274C17.5174 20.4997 17.3471 20.4997 17.3471 19.814C17.3471 18.726 18.5504 17.5814 19.294 18.0404C19.6346 18.216 20.3271 18.7317 20.9004 19.185Z" fill="#FB774B"/>
</svg>
